<svg width="360" height="314" viewBox="0 0 360 314" fill="none" xmlns="http://www.w3.org/2000/svg">
<rect width="360" height="313.14" rx="35" fill="#282827"/>
<path d="M216 188.78H189.39C189.39 184.16 189.78 174.81 190.54 170.18C191.31 165.56 192.76 161.35 194.9 157.54C197.04 153.74 199.8 150.68 203.16 148.36C206.53 146.05 210.81 144.89 216.01 144.89V124.5C207.14 124.5 199.57 126.13 193.3 129.39C187.03 132.65 181.83 137 177.7 142.44C175.69 145.09 173.94 147.95 172.44 151.01C174.3 144.01 175.24 136.7 175.24 129.07V83.8H124.77V124.34H151.38C151.38 128.96 150.99 138.31 150.23 142.94C149.46 147.56 148.01 151.77 145.87 155.58C143.73 159.38 140.97 162.44 137.61 164.76C134.24 167.07 129.96 168.23 124.76 168.23V188.62C133.63 188.62 141.2 186.99 147.47 183.73C153.74 180.47 158.94 176.11 163.07 170.68C165.08 168.03 166.83 165.17 168.33 162.11C166.47 169.11 165.53 176.42 165.53 184.05V229.32H216V188.78Z" fill="#F5F88D"/>
</svg>
